<svg width="32" height="32" viewBox="0 0 32 32" fill="none" xmlns="http://www.w3.org/2000/svg">
<rect width="32" height="32" rx="3" fill="white"/>
<path d="M14.4448 8.86484C14.0954 8.86484 13.7537 8.96847 13.4632 9.16262C13.1726 9.35677 12.9461 9.63273 12.8124 9.9556C12.6787 10.2785 12.6437 10.6337 12.7118 10.9765C12.78 11.3192 12.9483 11.6341 13.1954 11.8812C13.4425 12.1283 13.7574 12.2966 14.1001 12.3648C14.4429 12.4329 14.7981 12.3979 15.121 12.2642C15.4439 12.1305 15.7198 11.904 15.914 11.6134C16.1081 11.3229 16.2118 10.9812 16.2118 10.6318C16.2118 10.1632 16.0256 9.71373 15.6942 9.38236C15.3629 9.051 14.9134 8.86484 14.4448 8.86484ZM14.4448 11.298C14.3126 11.298 14.1834 11.2587 14.0735 11.1853C13.9636 11.1118 13.878 11.0074 13.8275 10.8852C13.777 10.763 13.7639 10.6286 13.7898 10.499C13.8157 10.3694 13.8795 10.2504 13.9731 10.157C14.0667 10.0637 14.1859 10.0002 14.3156 9.97461C14.4453 9.94904 14.5797 9.96252 14.7017 10.0134C14.8237 10.0642 14.9279 10.1501 15.0011 10.2602C15.0743 10.3703 15.1132 10.4996 15.1128 10.6318C15.1123 10.8086 15.0418 10.9781 14.9165 11.103C14.7913 11.2278 14.6217 11.298 14.4448 11.298Z" fill="#231815"/>
<path d="M22.1231 15.911C23.5848 16.3438 24.9639 16.7514 26.6123 16.7514H28.2051C28.337 16.7514 28.4635 16.699 28.5568 16.6057C28.65 16.5125 28.7025 16.3859 28.7025 16.254V16.0403C28.7025 15.9083 28.6501 15.7815 28.5569 15.688C28.4636 15.5944 28.3371 15.5416 28.2051 15.5411H26.6123C25.1363 15.5411 23.899 15.182 22.4643 14.751C20.4998 14.1692 18.275 13.5102 14.7232 13.5102C13.0151 13.4953 11.3148 13.7412 9.68093 14.2393C8.58154 14.5806 7.53123 15.0635 6.55647 15.6758C5.94056 16.0655 5.62093 16.4623 5.58142 16.8897C5.54192 17.3171 5.78613 17.7678 6.32663 18.2706C7.13547 19.037 8.06332 19.6671 9.074 20.1363C10.7012 20.8673 12.4691 21.232 14.2527 21.2047C15.6693 21.2169 17.0773 20.9848 18.4151 20.5187C19.3134 20.2025 20.1605 19.756 20.929 19.1935C21.2796 18.953 21.5454 18.6081 21.6886 18.2077C21.7915 17.8993 21.7749 17.5635 21.6419 17.2668C21.4228 16.7748 20.9093 16.5252 20.1156 16.5252H13.0819C12.9498 16.5256 12.8233 16.5784 12.7301 16.672C12.6369 16.7656 12.5845 16.8923 12.5845 17.0244V17.238C12.5845 17.3701 12.6369 17.4968 12.7301 17.5904C12.8233 17.684 12.9498 17.7368 13.0819 17.7372C13.1394 17.7372 18.8281 17.7372 20.3634 17.7372C20.3974 17.7367 20.4307 17.7468 20.4587 17.7661C20.4867 17.7854 20.508 17.813 20.5196 17.845C20.5309 17.8758 20.5328 17.9093 20.5251 17.9413C20.5175 17.9732 20.5005 18.0022 20.4765 18.0245C19.8214 18.5859 19.0692 19.0228 18.257 19.3138C16.9748 19.7831 15.618 20.0155 14.2527 19.9998C10.234 19.9998 8.06842 18.3514 7.13468 17.3691C7.09084 17.3231 7.05754 17.2681 7.03708 17.208C7.01661 17.1478 7.00948 17.084 7.01616 17.0208C7.02339 16.9566 7.04448 16.8948 7.07796 16.8396C7.11145 16.7844 7.15653 16.7372 7.21009 16.7011C8.55325 15.8033 10.9487 14.7259 14.7232 14.7259C18.1026 14.7223 20.2323 15.3544 22.1231 15.911Z" fill="#231815"/>
<path d="M25.1255 21.4022C24.6927 23.3074 24.0068 24.8553 23.091 26.0045C22.1552 27.2062 20.8245 28.0381 19.3344 28.3532C18.0079 28.6127 16.6584 28.7367 15.3068 28.7231H15.278C13.9747 28.7464 12.6727 28.626 11.3958 28.364C6.98742 27.3135 4.86494 23.9808 5.2528 18.7231V18.6548C5.25881 18.5861 5.25038 18.5168 5.22806 18.4515C5.20575 18.3862 5.17003 18.3262 5.1232 18.2755C5.07638 18.2248 5.01947 18.1844 4.95614 18.157C4.8928 18.1295 4.82443 18.1156 4.7554 18.1161H4.54531C4.41963 18.1166 4.29873 18.1644 4.20659 18.2499C4.11446 18.3353 4.05782 18.4523 4.04791 18.5776V18.6297C3.61515 24.4746 6.1255 28.3496 11.1175 29.5384C12.5223 29.8505 13.9575 30.0053 15.3965 29.9999C16.8385 29.9855 18.2753 29.8243 19.6846 29.5186C20.553 29.3193 21.3813 28.9738 22.1339 28.4969C22.8428 28.042 23.4704 27.4715 23.9906 26.809C24.9836 25.552 25.7414 23.873 26.307 21.6662C26.7164 20.0608 27.7166 19.5347 28.2823 19.3641C28.407 19.3265 28.5163 19.2495 28.5936 19.1446C28.671 19.0397 28.7123 18.9126 28.7114 18.7823V18.6333C28.7105 18.5638 28.6938 18.4953 28.6627 18.4332C28.6316 18.371 28.5869 18.3166 28.5319 18.2741C28.4758 18.2302 28.4102 18.2 28.3403 18.186C28.2705 18.1719 28.1983 18.1745 28.1296 18.1933C27.8741 18.2549 27.6218 18.3292 27.3736 18.416C26.8571 18.6144 26.4002 18.9421 26.0466 19.3677C25.5835 19.9638 25.2679 20.6609 25.1255 21.4022Z" fill="#231815"/>
<path d="M26.5171 18.8937C26.4996 18.9064 26.4828 18.9202 26.4668 18.935C26.4828 18.9202 26.4996 18.9064 26.5171 18.8937Z" fill="#231815"/>
<path d="M26.8529 18.662L26.7936 18.6979L26.8529 18.662Z" fill="#231815"/>
<path d="M27.2013 18.4789L27.1636 18.4968L27.2013 18.4789Z" fill="#231815"/>
<path d="M26.2011 19.1792L26.167 19.2151L26.2011 19.1792Z" fill="#231815"/>
<path d="M24.2186 10.9496C24.2186 11.6966 24.2186 13.3738 25.4756 13.9286C25.5726 13.9717 26.2657 14.1746 26.3734 13.697V13.2337C26.3717 13.1509 26.3428 13.0709 26.2912 13.006C26.2397 12.9411 26.1682 12.895 26.0879 12.8746C25.6193 12.7435 25.4397 12.1886 25.4397 10.9496C25.4397 9.48076 25.1003 8.41413 24.4341 7.77667C23.9475 7.32506 23.302 7.08428 22.6385 7.10688H22.4715C21.8306 7.15691 21.2074 7.3404 20.6417 7.64558C20.0671 7.91493 19.8588 7.99035 19.5966 7.8467C19.2518 7.65456 19.0579 7.22719 18.7598 6.48917C18.6754 6.28267 18.5802 6.02409 18.4528 5.7709C17.6285 3.9501 15.7592 2 12.9796 2C9.07038 2 6.63546 4.6935 6.12369 9.57952C5.9549 11.1956 5.44313 12.5244 4.82003 12.9518L4.73205 13.0128C4.62312 13.0877 4.54834 13.2027 4.52411 13.3327C4.49987 13.4626 4.52815 13.5969 4.60276 13.706L4.72307 13.8855C4.79825 13.9941 4.91324 14.0685 5.04304 14.0927C5.17283 14.117 5.30694 14.089 5.4162 14.0148L5.50418 13.9538C6.84555 13.0344 7.22803 10.6803 7.32858 9.7106C7.63923 6.74775 8.87106 3.21567 12.9796 3.21567C15.1828 3.21567 16.6822 4.79226 17.3502 6.2683C17.4562 6.50174 17.5459 6.72081 17.6321 6.9345V6.95066C17.9589 7.74973 18.2678 8.50391 19.0058 8.90973C19.8318 9.36583 20.5321 9.03543 21.1498 8.74453C21.573 8.51074 22.0402 8.36764 22.5217 8.32435H22.6313C22.8456 8.32084 23.0584 8.3618 23.2562 8.44466H23.2705C23.344 8.47731 23.4138 8.51764 23.4788 8.56496L23.5022 8.58292C23.5333 8.6047 23.5633 8.62807 23.592 8.65295C24.0032 9.0462 24.2186 9.84168 24.2186 10.9496Z" fill="#231815"/>
</svg>
