<svg width="80" height="68" viewBox="0 0 80 68" fill="none" xmlns="http://www.w3.org/2000/svg">
<path d="M10.2778 65.1286C10.2329 64.3203 10.1752 63.5056 10.1175 62.7036C10.0597 61.9017 9.98917 61.1255 9.91219 60.3813C9.85445 59.8424 9.79671 59.3356 9.73256 58.8673C9.71556 58.7556 9.6588 58.6539 9.57275 58.5809C9.48669 58.5078 9.37713 58.4682 9.26423 58.4695H8.16722C8.08466 58.4687 8.00345 58.4904 7.93226 58.5322C7.86107 58.574 7.80258 58.6344 7.76305 58.7069C7.63474 58.9378 7.50001 59.1944 7.35888 59.4703C7.15358 59.8745 6.92905 60.3364 6.68527 60.8432C6.44149 61.35 6.21694 61.8504 5.9924 62.3444L5.42785 63.6274C5.41154 63.6628 5.38523 63.6926 5.35216 63.7131C5.31909 63.7336 5.28073 63.744 5.24182 63.7429C5.20199 63.7444 5.16258 63.7343 5.1284 63.7138C5.09423 63.6933 5.06675 63.6633 5.04935 63.6274L4.48479 62.3444C4.26667 61.8504 4.02931 61.3436 3.79194 60.8432C3.55458 60.3428 3.33005 59.8809 3.11834 59.4703L2.72057 58.7069C2.67946 58.6343 2.61974 58.5741 2.54756 58.5324C2.47538 58.4906 2.39337 58.4689 2.31 58.4695H1.11674C1.00494 58.4698 0.896933 58.51 0.812219 58.583C0.727505 58.6559 0.671676 58.7567 0.654831 58.8673C0.590678 59.3292 0.53294 59.836 0.475202 60.3813C0.398218 61.1255 0.327664 61.9081 0.269926 62.7036C0.212188 63.4991 0.154443 64.3011 0.103121 65.1286C0.0646286 65.7189 0.0325495 66.3155 0.00047275 66.8993C-0.00207758 66.9498 0.00571038 67.0004 0.0233595 67.0478C0.0410087 67.0952 0.0681503 67.1386 0.103121 67.1751C0.174189 67.2477 0.271043 67.2892 0.372574 67.2906H1.46317C1.56031 67.2907 1.65379 67.2535 1.72424 67.1866C1.7947 67.1198 1.83673 67.0284 1.84167 66.9314C1.84167 66.1808 1.89301 65.3724 1.9315 64.5256C1.97641 63.4863 2.04698 62.4278 2.13679 61.3885L2.16886 61.0421C2.16886 61.0421 2.16885 61.0421 2.20093 61.0421L2.34207 61.3628L2.8938 62.5753C3.11192 63.0565 3.31079 63.4927 3.49042 63.9097C3.67005 64.3267 3.90101 64.8207 4.0614 65.1928L4.38857 65.9177C4.42235 65.9898 4.47579 66.051 4.54274 66.0941C4.6097 66.1372 4.68744 66.1606 4.76707 66.1615H5.57541C5.65521 66.1614 5.73329 66.1383 5.80038 66.0951C5.86747 66.0519 5.92076 65.9903 5.95391 65.9177C6.05014 65.6996 6.15921 65.4558 6.2811 65.1928L6.85206 63.9097L7.4487 62.5753C7.65399 62.1327 7.83361 61.7285 8.00041 61.3628L8.14797 61.0421L8.18004 61.3949C8.26985 62.4406 8.34043 63.4991 8.38533 64.532C8.42383 65.3788 8.4559 66.1872 8.48156 66.9378C8.48489 67.0342 8.52555 67.1256 8.59498 67.1926C8.6644 67.2597 8.75716 67.2971 8.85366 67.297H9.94426C9.99562 67.2972 10.0465 67.287 10.0939 67.2672C10.1412 67.2473 10.1842 67.2182 10.2201 67.1816C10.2883 67.1061 10.3251 67.0074 10.3228 66.9057C10.3548 66.3668 10.3228 65.783 10.2778 65.1286Z" fill="#231815"/>
<path d="M18.6819 66.5656V60.9714C18.6827 60.9296 18.6752 60.888 18.6598 60.8491C18.6444 60.8103 18.6214 60.7748 18.5921 60.745C18.5628 60.7151 18.5279 60.6914 18.4893 60.6752C18.4508 60.659 18.4094 60.6506 18.3675 60.6506H17.1935C17.1085 60.6506 17.0269 60.6844 16.9667 60.7446C16.9065 60.8047 16.8728 60.8863 16.8728 60.9714V65.5455C16.8747 65.6553 16.8346 65.7616 16.7606 65.8428C16.6867 65.9239 16.5845 65.9736 16.475 65.9818L15.8335 66.0203C15.6285 66.0438 15.421 66.0129 15.2318 65.9307C15.0426 65.8485 14.8783 65.7178 14.7557 65.552C14.5395 65.1099 14.4443 64.6185 14.4798 64.1278V60.9714C14.4807 60.9296 14.4732 60.888 14.4578 60.8491C14.4424 60.8103 14.4193 60.7748 14.3901 60.745C14.3608 60.7151 14.3258 60.6914 14.2873 60.6752C14.2487 60.659 14.2073 60.6506 14.1655 60.6506H12.9915C12.9064 60.6506 12.8248 60.6844 12.7647 60.7446C12.7045 60.8047 12.6707 60.8863 12.6707 60.9714V64.3651C12.6661 64.7973 12.7157 65.2283 12.8183 65.6482C12.9033 66.0014 13.0679 66.3305 13.2994 66.6105C13.547 66.9003 13.8652 67.1213 14.2232 67.252C14.7022 67.4142 15.2061 67.4902 15.7116 67.4766C16.2827 67.4793 16.8531 67.4386 17.4181 67.3547C17.6811 67.3162 17.9249 67.2777 18.1366 67.2328C18.2941 67.2091 18.4371 67.1277 18.5379 67.0044C18.6387 66.881 18.69 66.7246 18.6819 66.5656Z" fill="#231815"/>
<path d="M26.6819 66.1871V63.1591C26.6853 62.7777 26.6357 62.3977 26.5343 62.03C26.4464 61.7127 26.2785 61.4234 26.0468 61.1896C25.7875 60.9433 25.4729 60.7628 25.1294 60.6635C24.6505 60.5233 24.1527 60.4584 23.6538 60.471C23.4231 60.4584 23.1918 60.4584 22.961 60.471C22.73 60.471 22.5055 60.5159 22.3195 60.548C22.2232 60.548 22.0179 60.5993 21.8255 60.6442C21.7134 60.6675 21.6147 60.7333 21.5501 60.8278C21.4855 60.9223 21.4601 61.0382 21.479 61.1511L21.556 61.6386C21.5652 61.6913 21.5849 61.7416 21.614 61.7865C21.643 61.8314 21.6809 61.87 21.7252 61.8999C21.7695 61.9299 21.8194 61.9506 21.8719 61.9608C21.9244 61.971 21.9784 61.9705 22.0308 61.9594L22.3964 61.8952C22.7431 61.849 23.0924 61.8254 23.4421 61.8247C23.8636 61.7825 24.2855 61.9018 24.6226 62.1583C24.7395 62.272 24.8313 62.409 24.8921 62.5603C24.9529 62.7117 24.9812 62.8742 24.9754 63.0372V63.3387L24.8599 63.3066C24.6995 63.2692 24.5365 63.2434 24.3724 63.2296C24.1416 63.2155 23.9102 63.2155 23.6795 63.2296C23.3046 63.2268 22.9305 63.2634 22.5632 63.3387C22.2352 63.4025 21.9192 63.5173 21.6266 63.6787C21.3498 63.8373 21.1219 64.0691 20.968 64.3486C20.8141 64.6281 20.7401 64.9445 20.7541 65.2633C20.744 65.6104 20.8142 65.9551 20.9594 66.2705C21.097 66.532 21.3005 66.7531 21.5496 66.912C21.8382 67.0921 22.1581 67.2161 22.4927 67.2777C22.9025 67.3585 23.3195 67.3972 23.7372 67.3932C24.3639 67.4016 24.9902 67.3608 25.6105 67.2713L25.7966 67.2392C26.0409 67.1889 26.2612 67.0577 26.4218 66.8668C26.5824 66.6759 26.674 66.4365 26.6819 66.1871ZM24.9562 66.0716H24.8792C24.7637 66.0716 24.6162 66.1037 24.4301 66.1165H23.8463C23.5209 66.1308 23.197 66.0647 22.9033 65.9241C22.7769 65.8495 22.6742 65.7405 22.6072 65.61C22.5402 65.4794 22.5116 65.3325 22.5248 65.1863C22.5203 65.025 22.5651 64.8661 22.653 64.7308C22.7408 64.6055 22.8604 64.5058 22.9995 64.4421C23.1505 64.3687 23.3135 64.3231 23.4806 64.3074C23.8215 64.2656 24.1662 64.2656 24.5071 64.3074C24.6803 64.3074 24.8022 64.3395 24.8856 64.3587H24.9562V66.0716Z" fill="#231815"/>
<path d="M37.1647 63.9162C37.8062 62.9988 38.3772 62.0686 38.9289 61.164C39.3587 60.4647 39.7821 59.7334 40.212 58.9892C40.2383 58.9398 40.2516 58.8845 40.2504 58.8286C40.2493 58.7726 40.2338 58.7179 40.2055 58.6696C40.1772 58.6213 40.137 58.5811 40.0887 58.5529C40.0404 58.5246 39.9856 58.5092 39.9297 58.5081H38.7557C38.6503 58.5079 38.5469 58.5373 38.4574 58.5929C38.3678 58.6484 38.2956 58.7279 38.2489 58.8224C38.0115 59.3164 37.7485 59.8168 37.4662 60.3108C37.1839 60.8048 36.8247 61.427 36.4782 61.9852C36.4557 62.021 36.4245 62.0504 36.3874 62.0709C36.3504 62.0913 36.3088 62.102 36.2665 62.102C36.2242 62.102 36.1826 62.0913 36.1456 62.0709C36.1086 62.0504 36.0774 62.021 36.0548 61.9852C35.7148 61.427 35.4133 60.8689 35.0797 60.3108C34.7461 59.7526 34.56 59.3292 34.3162 58.8288C34.2711 58.7327 34.1994 58.6514 34.1096 58.5946C34.0198 58.5378 33.9157 58.5077 33.8095 58.5081H32.5264C32.4704 58.5092 32.4157 58.5246 32.3674 58.5529C32.3191 58.5811 32.2789 58.6213 32.2505 58.6696C32.2222 58.7179 32.2068 58.7726 32.2056 58.8286C32.2045 58.8845 32.2178 58.9398 32.2441 58.9892C32.6483 59.7334 33.0781 60.4712 33.5272 61.1768C34.0853 62.0942 34.6819 63.0245 35.3042 63.9419V66.8159C35.3042 66.9418 35.3542 67.0626 35.4433 67.1516C35.5323 67.2407 35.653 67.2907 35.7789 67.2907H36.7284C36.8549 67.2907 36.9764 67.2409 37.0664 67.152C37.1565 67.0632 37.2079 66.9424 37.2096 66.8159L37.1647 63.9162Z" fill="#231815"/>
<path d="M43.5543 60.9907H42.5663C42.3396 60.9907 42.1558 61.1745 42.1558 61.4013V66.8736C42.1558 67.1004 42.3396 67.2842 42.5663 67.2842H43.5543C43.7811 67.2842 43.9649 67.1004 43.9649 66.8736V61.4013C43.9649 61.1745 43.7811 60.9907 43.5543 60.9907Z" fill="#231815"/>
<path d="M52.6063 66.7003C52.3305 66.2705 51.9648 65.6931 51.7723 65.4749C51.5029 65.1349 51.2142 64.7949 50.9255 64.4677C50.6634 64.1722 50.3827 63.8936 50.0851 63.6337L50.0081 63.5696C50.004 63.564 50.0017 63.5573 50.0017 63.5503C50.0017 63.5434 50.004 63.5366 50.0081 63.5311L50.0787 63.4605C50.624 62.9537 51.1308 62.4533 51.5927 61.9722C51.8365 61.722 52.0995 61.4397 52.4203 61.0997C52.4555 61.0614 52.4785 61.0135 52.4865 60.9621C52.4945 60.9108 52.4871 60.8582 52.4652 60.811C52.4468 60.7632 52.4142 60.7221 52.3717 60.6935C52.3293 60.6648 52.2791 60.6498 52.2278 60.6506H51.0667C50.9581 60.6506 50.8509 60.6741 50.7523 60.7195C50.6537 60.7649 50.5662 60.8311 50.4957 60.9136L50.2968 61.1318L49.7259 61.7733L48.6737 62.8832C48.6429 62.9172 48.6024 62.941 48.5577 62.9513C48.513 62.9616 48.4661 62.958 48.4235 62.9409C48.3802 62.9232 48.343 62.893 48.3167 62.8542C48.2905 62.8153 48.2763 62.7696 48.276 62.7228V57.9177C48.2756 57.8552 48.2617 57.7936 48.2351 57.7371C48.2085 57.6806 48.1699 57.6306 48.122 57.5905C48.0754 57.5489 48.0202 57.5181 47.9603 57.5004C47.9004 57.4826 47.8373 57.4783 47.7756 57.4878L46.8325 57.6354C46.7311 57.6507 46.6384 57.7018 46.5714 57.7795C46.5043 57.8571 46.4672 57.9562 46.4668 58.0588V66.8478C46.466 66.9065 46.4768 66.9647 46.4987 67.0192C46.5205 67.0736 46.553 67.1232 46.5942 67.165C46.6354 67.2068 46.6845 67.24 46.7386 67.2626C46.7927 67.2853 46.8508 67.2969 46.9095 67.2969H47.8269C47.946 67.2969 48.0602 67.2496 48.1445 67.1654C48.2287 67.0812 48.276 66.9669 48.276 66.8478V64.6345C48.2761 64.5909 48.2889 64.5483 48.3128 64.5118C48.3367 64.4754 48.3707 64.4467 48.4107 64.4292C48.4424 64.4227 48.4752 64.4227 48.5069 64.4292C48.5609 64.4329 48.6124 64.453 48.6545 64.487C49.0877 64.8782 49.485 65.3077 49.8413 65.7701C50.053 66.0523 50.2519 66.3282 50.4379 66.604C50.547 66.758 50.6625 66.9377 50.778 67.1045C50.8176 67.1668 50.8728 67.2178 50.9379 67.2527C51.0031 67.2875 51.0762 67.305 51.1501 67.3033H52.2856C52.3549 67.3039 52.4231 67.2857 52.4829 67.2507C52.5428 67.2157 52.5921 67.1651 52.6256 67.1045C52.6617 67.0424 52.6791 66.9712 52.6757 66.8995C52.6723 66.8278 52.6482 66.7586 52.6063 66.7003Z" fill="#231815"/>
<path d="M65.3406 58.7902C65.3389 58.7057 65.3046 58.6251 65.2448 58.5652C65.185 58.5054 65.1044 58.4711 65.0198 58.4695H58.0014C57.9169 58.4711 57.8362 58.5054 57.7764 58.5652C57.7166 58.6251 57.6823 58.7057 57.6807 58.7902V59.6499C57.6807 59.735 57.7145 59.8166 57.7746 59.8767C57.8348 59.9369 57.9164 59.9707 58.0014 59.9707H60.0992C60.2189 59.9724 60.3332 60.0211 60.4172 60.1063C60.5012 60.1916 60.5483 60.3065 60.5483 60.4262V66.9698C60.5483 67.0549 60.5821 67.1365 60.6423 67.1966C60.7024 67.2568 60.784 67.2906 60.8691 67.2906H62.1522C62.2372 67.2906 62.3188 67.2568 62.379 67.1966C62.4391 67.1365 62.4729 67.0549 62.4729 66.9698V60.4262C62.4729 60.3065 62.52 60.1916 62.6041 60.1063C62.6881 60.0211 62.8023 59.9724 62.922 59.9707H65.0198C65.1049 59.9707 65.1865 59.9369 65.2466 59.8767C65.3068 59.8166 65.3406 59.735 65.3406 59.6499V58.7902Z" fill="#231815"/>
<path d="M72.2694 63.0821C72.1994 62.4267 71.9179 61.812 71.4674 61.3307C71.1536 61.0375 70.784 60.8104 70.3807 60.6627C69.9773 60.515 69.5484 60.4499 69.1194 60.4711C68.6966 60.4717 68.2773 60.5477 67.8813 60.6956C67.4878 60.838 67.1261 61.0559 66.8163 61.3372C66.4962 61.6522 66.2412 62.0271 66.0657 62.4406C65.8692 62.9364 65.7733 63.4663 65.7834 63.9995C65.7787 64.4661 65.8524 64.9302 66.0016 65.3724C66.1306 65.7777 66.35 66.1484 66.6431 66.4566C66.9698 66.7774 67.3613 67.0246 67.7915 67.1815C68.3233 67.3663 68.8837 67.4553 69.4466 67.4446C69.6994 67.4445 69.9521 67.4317 70.2036 67.4061C70.4426 67.387 70.6803 67.3549 70.9157 67.3098C71.0569 67.3098 71.4033 67.1944 71.6471 67.1238C71.7024 67.1061 71.7496 67.0693 71.7802 67.0199C71.8108 66.9705 71.8227 66.9118 71.8139 66.8544L71.6663 65.9819C71.6613 65.9487 71.6489 65.917 71.63 65.8893C71.6111 65.8615 71.5863 65.8384 71.5573 65.8215C71.5306 65.8025 71.5001 65.7898 71.4679 65.7843C71.4357 65.7787 71.4026 65.7805 71.3712 65.7894C71.2108 65.8343 71.0376 65.8728 70.8451 65.9113C70.4744 65.9757 70.0988 66.0079 69.7225 66.0075C69.216 66.0471 68.7092 65.9355 68.2662 65.6868C68.0882 65.5726 67.9382 65.42 67.8272 65.2401C67.7161 65.0602 67.6469 64.8577 67.6246 64.6475V64.5512H71.5701C71.6625 64.5512 71.7539 64.533 71.8392 64.4974C71.9244 64.4619 72.0018 64.4098 72.0668 64.3442C72.1319 64.2786 72.1832 64.2007 72.218 64.1151C72.2527 64.0295 72.2702 63.9379 72.2694 63.8456C72.2886 63.3131 72.2758 63.1206 72.2694 63.0821ZM70.5821 63.3901H67.6567V63.2874C67.6879 63.1124 67.7352 62.9406 67.7979 62.7742C67.8561 62.6025 67.9502 62.445 68.0737 62.3123C68.1969 62.1724 68.3505 62.0627 68.5228 61.9915C68.725 61.9041 68.9441 61.8625 69.1643 61.8696C69.3853 61.8613 69.6051 61.9053 69.8059 61.9979C69.9724 62.0755 70.121 62.1869 70.2421 62.3251C70.3588 62.4596 70.4462 62.6169 70.4987 62.787C70.5571 62.9521 70.5896 63.1252 70.595 63.3002V63.3965L70.5821 63.3901Z" fill="#231815"/>
<path d="M42.0531 58.5466C42.0428 58.3455 42.093 58.146 42.1973 57.9737C42.3016 57.8015 42.455 57.6644 42.6379 57.5803C42.8208 57.4961 43.0248 57.4687 43.2234 57.5016C43.422 57.5344 43.6063 57.6261 43.7523 57.7647C43.8983 57.9033 43.9995 58.0824 44.0427 58.2791C44.0859 58.4757 44.0692 58.6808 43.9947 58.8679C43.9202 59.0549 43.7914 59.2154 43.6248 59.3285C43.4583 59.4416 43.2616 59.5022 43.0603 59.5025C42.9314 59.5059 42.803 59.4838 42.6826 59.4376C42.5622 59.3915 42.4521 59.322 42.3586 59.2332C42.2651 59.1444 42.1899 59.0381 42.1375 58.9203C42.0851 58.8025 42.0564 58.6755 42.0531 58.5466Z" fill="#231815"/>
<path d="M79.9997 66.2128V63.1848C80.0031 62.8034 79.9534 62.4234 79.8521 62.0557C79.7642 61.7385 79.5963 61.4491 79.3646 61.2153C79.1042 60.969 78.7901 60.7867 78.4472 60.6828C77.9672 60.5482 77.47 60.4855 76.9717 60.4968C76.7403 60.4947 76.509 60.5054 76.2788 60.5288C76.0478 60.5288 75.8233 60.5738 75.6373 60.6058C75.541 60.6058 75.3357 60.6571 75.1369 60.7021C75.026 60.7268 74.9288 60.7932 74.8655 60.8875C74.8023 60.9818 74.7777 61.0969 74.7968 61.2089L74.8738 61.6964C74.883 61.7491 74.9027 61.7994 74.9318 61.8443C74.9609 61.8892 74.9987 61.9278 75.043 61.9578C75.0873 61.9877 75.1372 62.0084 75.1897 62.0186C75.2422 62.0288 75.2963 62.0283 75.3486 62.0172L75.7142 61.953C76.0609 61.9068 76.4102 61.8832 76.7599 61.8825C77.1814 61.8404 77.6032 61.9596 77.9404 62.2161C78.0573 62.3298 78.1491 62.4668 78.2099 62.6182C78.2707 62.7695 78.2991 62.932 78.2932 63.095V63.3965L78.1777 63.3644C78.0196 63.3264 77.8587 63.3006 77.6966 63.2874C77.4665 63.2626 77.2351 63.2519 77.0037 63.2554C76.6288 63.2526 76.2547 63.2891 75.8875 63.3644C75.559 63.4267 75.2427 63.5415 74.9508 63.7044C74.674 63.8631 74.4462 64.0948 74.2923 64.3743C74.1384 64.6538 74.0644 64.9703 74.0783 65.289C74.0682 65.6361 74.1385 65.9808 74.2836 66.2962C74.4213 66.5577 74.6247 66.7789 74.8738 66.9378C75.1624 67.1178 75.4823 67.2419 75.8169 67.3035C76.2267 67.3842 76.6438 67.4229 77.0615 67.4189C77.6881 67.4273 78.3145 67.3865 78.9347 67.297H79.1208C79.3692 67.2442 79.592 67.1077 79.752 66.9104C79.912 66.7131 79.9994 66.4669 79.9997 66.2128ZM78.274 66.0974H78.197C78.0815 66.0974 77.934 66.1294 77.7479 66.1423H77.1641C76.8387 66.1566 76.5148 66.0905 76.2211 65.9498C76.0947 65.8752 75.992 65.7663 75.9251 65.6357C75.8581 65.5051 75.8294 65.3582 75.8425 65.212C75.8351 65.0503 75.8801 64.8906 75.9709 64.7566C76.0586 64.6312 76.1782 64.5316 76.3173 64.4679C76.4683 64.3944 76.6313 64.3488 76.7984 64.3331C77.1393 64.2913 77.484 64.2913 77.8249 64.3331C77.9981 64.3331 78.12 64.3331 78.2034 64.3845H78.274V66.0974Z" fill="#231815"/>
<path d="M36.7204 12.3519C36.0961 12.3519 35.4858 12.537 34.9668 12.8839C34.4477 13.2307 34.0432 13.7237 33.8043 14.3004C33.5654 14.8772 33.5028 15.5118 33.6246 16.1241C33.7464 16.7363 34.047 17.2988 34.4884 17.7402C34.9299 18.1816 35.4923 18.4822 36.1045 18.604C36.7168 18.7258 37.3515 18.6633 37.9282 18.4244C38.505 18.1855 38.9979 17.7809 39.3447 17.2619C39.6916 16.7428 39.8767 16.1326 39.8767 15.5083C39.8767 14.6712 39.5442 13.8683 38.9522 13.2764C38.3603 12.6845 37.5575 12.3519 36.7204 12.3519ZM36.7204 16.7288C36.4831 16.7288 36.2512 16.6584 36.054 16.5266C35.8567 16.3948 35.703 16.2075 35.6122 15.9883C35.5215 15.7692 35.4977 15.528 35.544 15.2953C35.5903 15.0627 35.7045 14.849 35.8722 14.6812C36.04 14.5135 36.2537 14.3992 36.4863 14.353C36.719 14.3067 36.9602 14.3304 37.1793 14.4212C37.3985 14.512 37.5858 14.6657 37.7176 14.863C37.8494 15.0602 37.9198 15.2921 37.9198 15.5293C37.9184 15.847 37.7916 16.1513 37.5669 16.3759C37.3423 16.6006 37.038 16.7274 36.7204 16.7288Z" fill="#231815"/>
<path d="M50.5244 25.0247C53.1547 25.8032 55.6325 26.5345 58.6047 26.5345H61.4665C61.7037 26.5345 61.9311 26.4402 62.0989 26.2725C62.2666 26.1048 62.3608 25.8773 62.3608 25.6402V25.2561C62.3608 25.0185 62.2667 24.7905 62.0992 24.6219C61.9316 24.4534 61.7042 24.358 61.4665 24.3566H58.6047C55.9481 24.3566 53.7229 23.699 51.1452 22.9362C47.6153 21.8841 43.612 20.7057 37.2256 20.7057C34.1535 20.6792 31.0954 21.1209 28.1563 22.0156C26.1797 22.6346 24.2913 23.5063 22.538 24.6091C21.4333 25.3087 20.8599 26.0242 20.7862 26.7922C20.7126 27.5603 21.1544 28.3704 22.1277 29.2752C23.5824 30.6532 25.2505 31.7866 27.0674 32.6315C29.9933 33.9448 33.1718 34.6003 36.3787 34.5516C38.9264 34.5727 41.4588 34.1545 43.8645 33.3154C45.4843 32.7506 47.011 31.9474 48.3939 30.9323C49.0236 30.5009 49.502 29.8826 49.7616 29.1648C49.9458 28.6094 49.9157 28.0052 49.6774 27.4709C49.2829 26.5871 48.357 26.1347 46.9314 26.1347H34.2691C34.031 26.136 33.803 26.2313 33.6346 26.3997C33.4662 26.5681 33.3709 26.7961 33.3696 27.0342V27.4025C33.371 27.6401 33.4664 27.8676 33.6349 28.0352C33.8035 28.2027 34.0315 28.2968 34.2691 28.2968C34.3691 28.2968 44.5852 28.2968 47.3628 28.2968C47.4239 28.2956 47.4837 28.3138 47.5338 28.3488C47.5839 28.3838 47.6216 28.4337 47.6416 28.4914C47.6644 28.548 47.6691 28.6103 47.6549 28.6697C47.6408 28.7291 47.6086 28.7826 47.5627 28.8228C46.3846 29.824 45.0355 30.6045 43.5804 31.127C41.2739 31.969 38.8339 32.3861 36.3787 32.358C29.1506 32.358 25.2577 29.3962 23.5796 27.6234C23.5006 27.5399 23.4408 27.44 23.4044 27.3309C23.3681 27.2219 23.3559 27.1061 23.369 26.9919C23.382 26.8776 23.4198 26.7676 23.4799 26.6695C23.5399 26.5714 23.6206 26.4876 23.7164 26.424C26.131 24.7985 30.4394 22.8626 37.2256 22.8626C43.2963 22.8836 47.1366 24.0199 50.5244 25.0247Z" fill="#231815"/>
<path d="M55.9218 34.899C55.1432 38.3236 53.9123 41.1065 52.2394 43.1739C50.5543 45.329 48.162 46.8196 45.4848 47.3824C43.0982 47.844 40.6716 48.0661 38.2409 48.0452H38.1883C35.8532 48.0829 33.5211 47.8642 31.2338 47.3929C23.306 45.5043 19.4868 39.502 20.1865 30.0329V29.9119C20.1951 29.789 20.1785 29.6657 20.1375 29.5495C20.0965 29.4333 20.0321 29.3268 19.9482 29.2365C19.8644 29.1463 19.7629 29.0742 19.65 29.0248C19.5372 28.9754 19.4154 28.9496 19.2922 28.9492H18.9029C18.6775 28.9512 18.4611 29.0377 18.2965 29.1916C18.1319 29.3456 18.031 29.5557 18.0139 29.7804V29.8751C17.2353 40.3963 21.7542 47.3508 30.7288 49.4919C33.2557 50.0514 35.8369 50.3284 38.425 50.3178C41.0152 50.3067 43.5974 50.0318 46.1318 49.4971C47.6951 49.1462 49.1875 48.5325 50.5455 47.6822C51.82 46.8631 52.9475 45.8352 53.8807 44.6416C55.6693 42.3901 57.0371 39.381 58.0471 35.3935C58.7836 32.5106 60.5827 31.5637 61.5875 31.2586C61.8128 31.1904 62.0099 31.051 62.1493 30.8613C62.2887 30.6716 62.3629 30.4419 62.3608 30.2065V29.9382C62.3624 29.8095 62.334 29.6823 62.2777 29.5666C62.2215 29.4508 62.139 29.3499 62.0368 29.2717C61.9346 29.1935 61.8155 29.1403 61.6891 29.1163C61.5627 29.0922 61.4324 29.0981 61.3087 29.1333C60.6038 29.3175 60.1461 29.4542 59.9514 29.5331C59.0242 29.8904 58.2038 30.479 57.5684 31.2428C56.7417 32.3163 56.1778 33.5684 55.9218 34.899Z" fill="#231815"/>
<path d="M58.4258 30.3851L58.3364 30.4588L58.4258 30.3851Z" fill="#231815"/>
<path d="M59.031 29.9697L58.9258 30.0329L59.031 29.9697Z" fill="#231815"/>
<path d="M59.6568 29.6382L59.5884 29.6697L59.6568 29.6382Z" fill="#231815"/>
<path d="M57.8576 30.9009L57.7944 30.964L57.8576 30.9009Z" fill="#231815"/>
<path d="M54.2965 16.1027C54.2965 17.4442 54.2965 20.4585 56.5585 21.458C56.7321 21.5369 57.9789 21.8999 58.1735 21.0424V20.2007C58.1729 20.0472 58.1207 19.8984 58.0253 19.7782C57.9299 19.6579 57.7968 19.5733 57.6475 19.5379C56.8058 19.3275 56.4638 18.328 56.4638 16.1027C56.4638 13.4724 55.8536 11.5418 54.6542 10.395C53.7796 9.58136 52.6179 9.14808 51.4242 9.19028H51.1401C49.9872 9.27758 48.8654 9.60553 47.8469 10.153C46.7948 10.6369 46.4424 10.7737 45.9689 10.516C45.3482 10.1688 45.0062 9.4007 44.4644 8.07503C44.3118 7.70153 44.1224 7.23859 43.9383 6.7704C42.4548 3.4983 39.0933 0 34.0957 0C27.0675 0 22.6907 4.83976 21.7701 13.6302C21.465 16.5446 20.5444 18.9224 19.4239 19.6904L19.2661 19.8009C19.1683 19.867 19.0847 19.9517 19.0198 20.0502C18.955 20.1488 18.9102 20.2592 18.8882 20.375C18.8662 20.4909 18.8674 20.61 18.8916 20.7255C18.9158 20.8409 18.9626 20.9504 19.0294 21.0477L19.2503 21.3633C19.3168 21.4606 19.4018 21.5438 19.5005 21.6082C19.5992 21.6725 19.7097 21.7167 19.8255 21.7382C19.9414 21.7597 20.0604 21.7581 20.1756 21.7335C20.2909 21.7089 20.4001 21.6618 20.4971 21.5948L20.6549 21.4896C23.0695 19.8325 23.7534 15.5977 23.9323 13.8564C24.4899 8.52744 26.7046 2.17789 34.0957 2.17789C38.057 2.17789 40.7504 5.01336 41.9551 7.66997C42.1444 8.09081 42.3075 8.48536 42.4811 8.86938C43.0703 10.3055 43.6227 11.6628 44.9483 12.394C46.4318 13.2146 47.6944 12.6202 48.8044 12.0994C49.5655 11.6788 50.4056 11.4209 51.2716 11.3419H51.4715C51.8558 11.3366 52.2371 11.41 52.592 11.5576C52.7228 11.618 52.8478 11.6902 52.9655 11.7732L53.0076 11.8101C53.0654 11.8475 53.1199 11.8897 53.1707 11.9363C53.9019 12.6728 54.2965 14.1089 54.2965 16.1027Z" fill="#231815"/>
</svg>
