<svg width="16" height="8" viewBox="0 0 16 8" fill="none" xmlns="http://www.w3.org/2000/svg">
<path d="M2.00018 0.499959C2.23383 0.499502 2.46027 0.580877 2.64018 0.729958L8.00018 5.20996L13.3702 0.889959C13.4725 0.806893 13.5902 0.744861 13.7165 0.707429C13.8428 0.669998 13.9753 0.657904 14.1064 0.671843C14.2374 0.685782 14.3644 0.725479 14.48 0.788653C14.5956 0.851827 14.6977 0.937232 14.7802 1.03996C14.8632 1.14225 14.9253 1.25994 14.9627 1.38628C15.0001 1.51262 15.0122 1.64511 14.9983 1.77614C14.9844 1.90717 14.9447 2.03415 14.8815 2.14979C14.8183 2.26543 14.7329 2.36744 14.6302 2.44996L8.63018 7.27996C8.45125 7.42704 8.2268 7.50745 7.99518 7.50745C7.76355 7.50745 7.53911 7.42704 7.36018 7.27996L1.36018 2.27996C1.25892 2.19601 1.17522 2.09291 1.11387 1.97656C1.05251 1.86021 1.01472 1.73291 1.00264 1.60193C0.990566 1.47095 1.00445 1.33888 1.04349 1.21328C1.08254 1.08767 1.14598 0.971007 1.23018 0.869958C1.32323 0.755245 1.44054 0.662571 1.57368 0.598596C1.70682 0.534621 1.85247 0.500935 2.00018 0.499959Z" fill="#333333"/>
</svg>
